<mxfile host="app.diagrams.net" modified="2021-07-10T17:30:25.149Z" agent="5.0 (Windows NT 10.0; Win64; x64) AppleWebKit/537.36 (KHTML, like Gecko) Chrome/91.0.4472.124 Safari/537.36" etag="TfV0u8o2Uq0QIVkkkKDR" version="14.8.5" type="github">
  <diagram id="zf1pwapAXWxLm9kr6Eve" name="Page-1">
    <mxGraphModel dx="982" dy="550" grid="1" gridSize="10" guides="1" tooltips="1" connect="1" arrows="1" fold="1" page="1" pageScale="1" pageWidth="827" pageHeight="1169" math="0" shadow="0">
      <root>
        <mxCell id="0" />
        <mxCell id="1" parent="0" />
        <mxCell id="8tAkoWX7OWOh1nrDBP8M-1" value="" style="rounded=0;whiteSpace=wrap;html=1;" vertex="1" parent="1">
          <mxGeometry x="130" y="190" width="600" height="820" as="geometry" />
        </mxCell>
        <mxCell id="8tAkoWX7OWOh1nrDBP8M-2" value="&lt;font style=&quot;font-size: 30px&quot;&gt;User name:&lt;/font&gt;" style="rounded=0;whiteSpace=wrap;html=1;align=left;" vertex="1" parent="1">
          <mxGeometry x="189" y="250" width="471" height="60" as="geometry" />
        </mxCell>
        <mxCell id="8tAkoWX7OWOh1nrDBP8M-3" value="Question 1:&amp;nbsp;" style="rounded=0;whiteSpace=wrap;html=1;" vertex="1" parent="1">
          <mxGeometry x="189" y="390" width="81" height="60" as="geometry" />
        </mxCell>
        <mxCell id="8tAkoWX7OWOh1nrDBP8M-5" value="Choose your answers:&lt;br&gt;&lt;div style=&quot;text-align: left&quot;&gt;&lt;span&gt;A:&amp;nbsp;&lt;/span&gt;&lt;/div&gt;&lt;div style=&quot;text-align: left&quot;&gt;&lt;span&gt;B:&amp;nbsp;&lt;/span&gt;&lt;/div&gt;&lt;div style=&quot;text-align: left&quot;&gt;&lt;span&gt;C:&amp;nbsp;&lt;/span&gt;&lt;/div&gt;&lt;div style=&quot;text-align: left&quot;&gt;&lt;span&gt;D:&amp;nbsp;&lt;/span&gt;&lt;/div&gt;&lt;div style=&quot;text-align: left&quot;&gt;&lt;span&gt;E:&lt;/span&gt;&lt;/div&gt;&lt;div style=&quot;text-align: left&quot;&gt;&lt;span&gt;&lt;br&gt;&lt;/span&gt;&lt;/div&gt;" style="rounded=0;whiteSpace=wrap;html=1;" vertex="1" parent="1">
          <mxGeometry x="294" y="390" width="366" height="100" as="geometry" />
        </mxCell>
        <mxCell id="8tAkoWX7OWOh1nrDBP8M-6" value="Choose your answers:&lt;br&gt;&lt;div style=&quot;text-align: left&quot;&gt;&lt;span&gt;A: Yes&lt;/span&gt;&lt;/div&gt;&lt;div style=&quot;text-align: left&quot;&gt;&lt;span&gt;B: No&lt;/span&gt;&lt;/div&gt;" style="rounded=0;whiteSpace=wrap;html=1;" vertex="1" parent="1">
          <mxGeometry x="294" y="510" width="366" height="100" as="geometry" />
        </mxCell>
        <mxCell id="8tAkoWX7OWOh1nrDBP8M-7" value="Question 2:&amp;nbsp;" style="rounded=0;whiteSpace=wrap;html=1;" vertex="1" parent="1">
          <mxGeometry x="189" y="510" width="81" height="60" as="geometry" />
        </mxCell>
        <mxCell id="8tAkoWX7OWOh1nrDBP8M-8" value="Question 3:&lt;br&gt;Topic:&amp;nbsp;" style="rounded=0;whiteSpace=wrap;html=1;" vertex="1" parent="1">
          <mxGeometry x="189" y="640" width="81" height="70" as="geometry" />
        </mxCell>
        <mxCell id="8tAkoWX7OWOh1nrDBP8M-9" value="Answer that question!" style="rounded=0;whiteSpace=wrap;html=1;" vertex="1" parent="1">
          <mxGeometry x="294" y="640" width="366" height="20" as="geometry" />
        </mxCell>
        <mxCell id="8tAkoWX7OWOh1nrDBP8M-14" value="" style="rounded=0;whiteSpace=wrap;html=1;" vertex="1" parent="1">
          <mxGeometry x="294" y="670" width="366" height="40" as="geometry" />
        </mxCell>
      </root>
    </mxGraphModel>
  </diagram>
</mxfile>
